<mxfile host="app.diagrams.net" modified="2022-06-07T03:57:32.839Z" agent="5.0 (Windows NT 10.0; Win64; x64) AppleWebKit/537.36 (KHTML, like Gecko) Chrome/102.0.5005.63 Safari/537.36" etag="P8jY4CubHS5gB5i6e5E6" version="19.0.0" type="github">
  <diagram id="UT9mPP_d55zDDZpw8Oh1" name="Page-1">
    <mxGraphModel dx="1778" dy="953" grid="1" gridSize="10" guides="1" tooltips="1" connect="1" arrows="1" fold="1" page="1" pageScale="1" pageWidth="2339" pageHeight="3300" math="0" shadow="0">
      <root>
        <mxCell id="0" />
        <mxCell id="1" parent="0" />
        <mxCell id="gsdXC3CE5baumBvn-r5R-2" value="&lt;font style=&quot;font-size: 24px;&quot;&gt;&lt;b style=&quot;&quot;&gt;0&lt;/b&gt;&lt;/font&gt;" style="rounded=0;whiteSpace=wrap;html=1;fillColor=#f8cecc;strokeColor=#b85450;shadow=0;sketch=1;" vertex="1" parent="1">
          <mxGeometry x="340" y="220" width="60" height="50" as="geometry" />
        </mxCell>
        <mxCell id="gsdXC3CE5baumBvn-r5R-43" style="edgeStyle=orthogonalEdgeStyle;rounded=0;sketch=1;orthogonalLoop=1;jettySize=auto;html=1;entryX=0.5;entryY=0;entryDx=0;entryDy=0;shadow=1;fontSize=30;strokeWidth=2;" edge="1" parent="1" source="gsdXC3CE5baumBvn-r5R-3" target="gsdXC3CE5baumBvn-r5R-40">
          <mxGeometry relative="1" as="geometry" />
        </mxCell>
        <mxCell id="gsdXC3CE5baumBvn-r5R-3" value="&lt;b style=&quot;&quot;&gt;&lt;font style=&quot;font-size: 24px;&quot;&gt;1&lt;/font&gt;&lt;/b&gt;" style="rounded=0;whiteSpace=wrap;html=1;fillColor=#f8cecc;strokeColor=#b85450;shadow=0;sketch=1;" vertex="1" parent="1">
          <mxGeometry x="400" y="220" width="60" height="50" as="geometry" />
        </mxCell>
        <mxCell id="gsdXC3CE5baumBvn-r5R-4" value="&lt;b style=&quot;&quot;&gt;&lt;font style=&quot;font-size: 24px;&quot;&gt;2&lt;/font&gt;&lt;/b&gt;" style="rounded=0;whiteSpace=wrap;html=1;fillColor=#f8cecc;strokeColor=#b85450;shadow=0;sketch=1;" vertex="1" parent="1">
          <mxGeometry x="460" y="220" width="60" height="50" as="geometry" />
        </mxCell>
        <mxCell id="gsdXC3CE5baumBvn-r5R-5" value="&lt;font style=&quot;font-size: 14px;&quot;&gt;&lt;b&gt;...&lt;/b&gt;&lt;/font&gt;" style="rounded=0;whiteSpace=wrap;html=1;fillColor=#f8cecc;strokeColor=#b85450;shadow=0;sketch=1;" vertex="1" parent="1">
          <mxGeometry x="520" y="220" width="60" height="50" as="geometry" />
        </mxCell>
        <mxCell id="gsdXC3CE5baumBvn-r5R-6" value="&lt;b style=&quot;font-size: 14px;&quot;&gt;...&lt;/b&gt;" style="rounded=0;whiteSpace=wrap;html=1;fillColor=#f8cecc;strokeColor=#b85450;shadow=0;sketch=1;" vertex="1" parent="1">
          <mxGeometry x="580" y="220" width="60" height="50" as="geometry" />
        </mxCell>
        <mxCell id="gsdXC3CE5baumBvn-r5R-7" value="&lt;b style=&quot;font-size: 14px;&quot;&gt;...&lt;/b&gt;" style="rounded=0;whiteSpace=wrap;html=1;fillColor=#f8cecc;strokeColor=#b85450;shadow=0;sketch=1;" vertex="1" parent="1">
          <mxGeometry x="640" y="220" width="60" height="50" as="geometry" />
        </mxCell>
        <mxCell id="gsdXC3CE5baumBvn-r5R-8" value="&lt;i&gt;原始数组：&lt;/i&gt;" style="text;html=1;align=center;verticalAlign=middle;resizable=0;points=[];autosize=1;strokeColor=none;fillColor=none;fontSize=24;" vertex="1" parent="1">
          <mxGeometry x="180" y="240" width="140" height="30" as="geometry" />
        </mxCell>
        <mxCell id="gsdXC3CE5baumBvn-r5R-9" value="jdk 1.7中并发扩容死链问题" style="text;html=1;align=center;verticalAlign=middle;resizable=0;points=[];autosize=1;strokeColor=none;fillColor=none;fontSize=24;" vertex="1" parent="1">
          <mxGeometry x="190" y="125" width="300" height="30" as="geometry" />
        </mxCell>
        <mxCell id="gsdXC3CE5baumBvn-r5R-10" value="&lt;font style=&quot;font-size: 24px;&quot;&gt;&lt;b style=&quot;&quot;&gt;0&lt;/b&gt;&lt;/font&gt;" style="rounded=0;whiteSpace=wrap;html=1;fillColor=#dae8fc;strokeColor=#6c8ebf;sketch=1;" vertex="1" parent="1">
          <mxGeometry x="960" y="220" width="60" height="50" as="geometry" />
        </mxCell>
        <mxCell id="gsdXC3CE5baumBvn-r5R-11" value="&lt;b style=&quot;&quot;&gt;&lt;font style=&quot;font-size: 24px;&quot;&gt;1&lt;/font&gt;&lt;/b&gt;" style="rounded=0;whiteSpace=wrap;html=1;fillColor=#dae8fc;strokeColor=#6c8ebf;sketch=1;" vertex="1" parent="1">
          <mxGeometry x="1020" y="220" width="60" height="50" as="geometry" />
        </mxCell>
        <mxCell id="gsdXC3CE5baumBvn-r5R-12" value="&lt;b style=&quot;&quot;&gt;&lt;font style=&quot;font-size: 24px;&quot;&gt;2&lt;/font&gt;&lt;/b&gt;" style="rounded=0;whiteSpace=wrap;html=1;fillColor=#dae8fc;strokeColor=#6c8ebf;sketch=1;" vertex="1" parent="1">
          <mxGeometry x="1080" y="220" width="60" height="50" as="geometry" />
        </mxCell>
        <mxCell id="gsdXC3CE5baumBvn-r5R-13" value="&lt;font style=&quot;font-size: 14px;&quot;&gt;&lt;b&gt;...&lt;/b&gt;&lt;/font&gt;" style="rounded=0;whiteSpace=wrap;html=1;fillColor=#dae8fc;strokeColor=#6c8ebf;sketch=1;" vertex="1" parent="1">
          <mxGeometry x="1140" y="220" width="60" height="50" as="geometry" />
        </mxCell>
        <mxCell id="gsdXC3CE5baumBvn-r5R-14" value="&lt;b style=&quot;font-size: 14px;&quot;&gt;...&lt;/b&gt;" style="rounded=0;whiteSpace=wrap;html=1;fillColor=#dae8fc;strokeColor=#6c8ebf;sketch=1;" vertex="1" parent="1">
          <mxGeometry x="1200" y="220" width="60" height="50" as="geometry" />
        </mxCell>
        <mxCell id="gsdXC3CE5baumBvn-r5R-15" value="&lt;b style=&quot;font-size: 14px;&quot;&gt;...&lt;/b&gt;" style="rounded=0;whiteSpace=wrap;html=1;fillColor=#dae8fc;strokeColor=#6c8ebf;sketch=1;" vertex="1" parent="1">
          <mxGeometry x="1260" y="220" width="60" height="50" as="geometry" />
        </mxCell>
        <mxCell id="gsdXC3CE5baumBvn-r5R-16" value="&lt;font style=&quot;font-size: 14px;&quot;&gt;&lt;b&gt;...&lt;/b&gt;&lt;/font&gt;" style="rounded=0;whiteSpace=wrap;html=1;fillColor=#dae8fc;strokeColor=#6c8ebf;sketch=1;" vertex="1" parent="1">
          <mxGeometry x="1320" y="220" width="60" height="50" as="geometry" />
        </mxCell>
        <mxCell id="gsdXC3CE5baumBvn-r5R-17" value="&lt;b style=&quot;font-size: 14px;&quot;&gt;...&lt;/b&gt;" style="rounded=0;whiteSpace=wrap;html=1;fillColor=#dae8fc;strokeColor=#6c8ebf;sketch=1;" vertex="1" parent="1">
          <mxGeometry x="1380" y="220" width="60" height="50" as="geometry" />
        </mxCell>
        <mxCell id="gsdXC3CE5baumBvn-r5R-18" value="&lt;b style=&quot;font-size: 14px;&quot;&gt;...&lt;/b&gt;" style="rounded=0;whiteSpace=wrap;html=1;fillColor=#dae8fc;strokeColor=#6c8ebf;sketch=1;" vertex="1" parent="1">
          <mxGeometry x="1440" y="220" width="60" height="50" as="geometry" />
        </mxCell>
        <mxCell id="gsdXC3CE5baumBvn-r5R-19" value="&lt;font style=&quot;font-size: 14px;&quot;&gt;&lt;b&gt;...&lt;/b&gt;&lt;/font&gt;" style="rounded=0;whiteSpace=wrap;html=1;fillColor=#dae8fc;strokeColor=#6c8ebf;sketch=1;" vertex="1" parent="1">
          <mxGeometry x="1500" y="220" width="60" height="50" as="geometry" />
        </mxCell>
        <mxCell id="gsdXC3CE5baumBvn-r5R-20" value="&lt;b style=&quot;font-size: 14px;&quot;&gt;...&lt;/b&gt;" style="rounded=0;whiteSpace=wrap;html=1;fillColor=#dae8fc;strokeColor=#6c8ebf;sketch=1;" vertex="1" parent="1">
          <mxGeometry x="1560" y="220" width="60" height="50" as="geometry" />
        </mxCell>
        <mxCell id="gsdXC3CE5baumBvn-r5R-21" value="&lt;b style=&quot;font-size: 14px;&quot;&gt;...&lt;/b&gt;" style="rounded=0;whiteSpace=wrap;html=1;fillColor=#dae8fc;strokeColor=#6c8ebf;sketch=1;" vertex="1" parent="1">
          <mxGeometry x="1620" y="220" width="60" height="50" as="geometry" />
        </mxCell>
        <mxCell id="gsdXC3CE5baumBvn-r5R-22" value="&lt;font style=&quot;font-size: 24px;&quot;&gt;&lt;b style=&quot;&quot;&gt;0&lt;/b&gt;&lt;/font&gt;" style="rounded=0;whiteSpace=wrap;html=1;fillColor=#ffe6cc;strokeColor=#d79b00;sketch=1;" vertex="1" parent="1">
          <mxGeometry x="960" y="540" width="60" height="50" as="geometry" />
        </mxCell>
        <mxCell id="gsdXC3CE5baumBvn-r5R-23" value="&lt;b style=&quot;&quot;&gt;&lt;font style=&quot;font-size: 24px;&quot;&gt;1&lt;/font&gt;&lt;/b&gt;" style="rounded=0;whiteSpace=wrap;html=1;fillColor=#ffe6cc;strokeColor=#d79b00;sketch=1;" vertex="1" parent="1">
          <mxGeometry x="1020" y="540" width="60" height="50" as="geometry" />
        </mxCell>
        <mxCell id="gsdXC3CE5baumBvn-r5R-24" value="&lt;b style=&quot;&quot;&gt;&lt;font style=&quot;font-size: 24px;&quot;&gt;2&lt;/font&gt;&lt;/b&gt;" style="rounded=0;whiteSpace=wrap;html=1;fillColor=#ffe6cc;strokeColor=#d79b00;sketch=1;" vertex="1" parent="1">
          <mxGeometry x="1080" y="540" width="60" height="50" as="geometry" />
        </mxCell>
        <mxCell id="gsdXC3CE5baumBvn-r5R-25" value="&lt;font style=&quot;font-size: 14px;&quot;&gt;&lt;b&gt;...&lt;/b&gt;&lt;/font&gt;" style="rounded=0;whiteSpace=wrap;html=1;fillColor=#ffe6cc;strokeColor=#d79b00;sketch=1;" vertex="1" parent="1">
          <mxGeometry x="1140" y="540" width="60" height="50" as="geometry" />
        </mxCell>
        <mxCell id="gsdXC3CE5baumBvn-r5R-26" value="&lt;b style=&quot;font-size: 14px;&quot;&gt;...&lt;/b&gt;" style="rounded=0;whiteSpace=wrap;html=1;fillColor=#ffe6cc;strokeColor=#d79b00;sketch=1;" vertex="1" parent="1">
          <mxGeometry x="1200" y="540" width="60" height="50" as="geometry" />
        </mxCell>
        <mxCell id="gsdXC3CE5baumBvn-r5R-27" value="&lt;b style=&quot;font-size: 14px;&quot;&gt;...&lt;/b&gt;" style="rounded=0;whiteSpace=wrap;html=1;fillColor=#ffe6cc;strokeColor=#d79b00;sketch=1;" vertex="1" parent="1">
          <mxGeometry x="1260" y="540" width="60" height="50" as="geometry" />
        </mxCell>
        <mxCell id="gsdXC3CE5baumBvn-r5R-28" value="&lt;font style=&quot;font-size: 14px;&quot;&gt;&lt;b&gt;...&lt;/b&gt;&lt;/font&gt;" style="rounded=0;whiteSpace=wrap;html=1;fillColor=#ffe6cc;strokeColor=#d79b00;sketch=1;" vertex="1" parent="1">
          <mxGeometry x="1320" y="540" width="60" height="50" as="geometry" />
        </mxCell>
        <mxCell id="gsdXC3CE5baumBvn-r5R-29" value="&lt;b style=&quot;font-size: 14px;&quot;&gt;...&lt;/b&gt;" style="rounded=0;whiteSpace=wrap;html=1;fillColor=#ffe6cc;strokeColor=#d79b00;sketch=1;" vertex="1" parent="1">
          <mxGeometry x="1380" y="540" width="60" height="50" as="geometry" />
        </mxCell>
        <mxCell id="gsdXC3CE5baumBvn-r5R-30" value="&lt;b style=&quot;font-size: 14px;&quot;&gt;...&lt;/b&gt;" style="rounded=0;whiteSpace=wrap;html=1;fillColor=#ffe6cc;strokeColor=#d79b00;sketch=1;" vertex="1" parent="1">
          <mxGeometry x="1440" y="540" width="60" height="50" as="geometry" />
        </mxCell>
        <mxCell id="gsdXC3CE5baumBvn-r5R-31" value="&lt;font style=&quot;font-size: 14px;&quot;&gt;&lt;b&gt;...&lt;/b&gt;&lt;/font&gt;" style="rounded=0;whiteSpace=wrap;html=1;fillColor=#ffe6cc;strokeColor=#d79b00;sketch=1;" vertex="1" parent="1">
          <mxGeometry x="1500" y="540" width="60" height="50" as="geometry" />
        </mxCell>
        <mxCell id="gsdXC3CE5baumBvn-r5R-32" value="&lt;b style=&quot;font-size: 14px;&quot;&gt;...&lt;/b&gt;" style="rounded=0;whiteSpace=wrap;html=1;fillColor=#ffe6cc;strokeColor=#d79b00;sketch=1;" vertex="1" parent="1">
          <mxGeometry x="1560" y="540" width="60" height="50" as="geometry" />
        </mxCell>
        <mxCell id="gsdXC3CE5baumBvn-r5R-33" value="&lt;b style=&quot;font-size: 14px;&quot;&gt;...&lt;/b&gt;" style="rounded=0;whiteSpace=wrap;html=1;fillColor=#ffe6cc;strokeColor=#d79b00;sketch=1;" vertex="1" parent="1">
          <mxGeometry x="1620" y="540" width="60" height="50" as="geometry" />
        </mxCell>
        <mxCell id="gsdXC3CE5baumBvn-r5R-34" value="" style="shape=flexArrow;endArrow=classic;html=1;rounded=0;fontSize=24;fillColor=#dae8fc;strokeColor=#6c8ebf;shadow=1;sketch=1;startArrow=none;" edge="1" parent="1">
          <mxGeometry width="50" height="50" relative="1" as="geometry">
            <mxPoint x="800" y="244" as="sourcePoint" />
            <mxPoint x="870" y="244.29" as="targetPoint" />
            <Array as="points">
              <mxPoint x="830" y="244.29" />
            </Array>
          </mxGeometry>
        </mxCell>
        <mxCell id="gsdXC3CE5baumBvn-r5R-37" value="&lt;font style=&quot;font-size: 16px;&quot;&gt;&lt;b&gt;线程1&lt;/b&gt;&lt;/font&gt;" style="text;html=1;align=center;verticalAlign=middle;resizable=0;points=[];autosize=1;strokeColor=none;fillColor=none;fontSize=24;sketch=1;" vertex="1" parent="1">
          <mxGeometry x="790" y="200" width="60" height="40" as="geometry" />
        </mxCell>
        <mxCell id="gsdXC3CE5baumBvn-r5R-38" value="" style="shape=flexArrow;endArrow=classic;html=1;rounded=0;fontSize=24;fillColor=#dae8fc;strokeColor=#6c8ebf;shadow=1;sketch=1;startArrow=none;" edge="1" parent="1">
          <mxGeometry width="50" height="50" relative="1" as="geometry">
            <mxPoint x="800" y="544" as="sourcePoint" />
            <mxPoint x="870" y="544.29" as="targetPoint" />
            <Array as="points">
              <mxPoint x="830" y="544.29" />
            </Array>
          </mxGeometry>
        </mxCell>
        <mxCell id="gsdXC3CE5baumBvn-r5R-39" value="&lt;font style=&quot;font-size: 16px;&quot;&gt;&lt;b&gt;线程2&lt;/b&gt;&lt;/font&gt;" style="text;html=1;align=center;verticalAlign=middle;resizable=0;points=[];autosize=1;strokeColor=none;fillColor=none;fontSize=24;sketch=1;" vertex="1" parent="1">
          <mxGeometry x="790" y="500" width="60" height="40" as="geometry" />
        </mxCell>
        <mxCell id="gsdXC3CE5baumBvn-r5R-42" style="edgeStyle=orthogonalEdgeStyle;rounded=0;sketch=1;orthogonalLoop=1;jettySize=auto;html=1;shadow=1;fontSize=30;strokeWidth=2;" edge="1" parent="1" source="gsdXC3CE5baumBvn-r5R-40" target="gsdXC3CE5baumBvn-r5R-41">
          <mxGeometry relative="1" as="geometry" />
        </mxCell>
        <mxCell id="gsdXC3CE5baumBvn-r5R-40" value="&lt;font style=&quot;font-size: 30px;&quot;&gt;&lt;i&gt;&lt;b&gt;a&lt;/b&gt;&lt;/i&gt;&lt;/font&gt;" style="ellipse;whiteSpace=wrap;html=1;aspect=fixed;shadow=0;sketch=0;fontSize=16;fillColor=#f9f7ed;strokeWidth=2;strokeColor=#36393d;" vertex="1" parent="1">
          <mxGeometry x="395" y="340" width="70" height="70" as="geometry" />
        </mxCell>
        <mxCell id="gsdXC3CE5baumBvn-r5R-44" style="edgeStyle=orthogonalEdgeStyle;rounded=0;sketch=1;orthogonalLoop=1;jettySize=auto;html=1;shadow=1;fontSize=30;strokeWidth=2;curved=1;" edge="1" parent="1" source="gsdXC3CE5baumBvn-r5R-41">
          <mxGeometry relative="1" as="geometry">
            <mxPoint x="430" y="620" as="targetPoint" />
          </mxGeometry>
        </mxCell>
        <mxCell id="gsdXC3CE5baumBvn-r5R-41" value="&lt;font style=&quot;font-size: 30px;&quot;&gt;&lt;i&gt;&lt;b&gt;b&lt;/b&gt;&lt;/i&gt;&lt;/font&gt;" style="ellipse;whiteSpace=wrap;html=1;aspect=fixed;shadow=0;sketch=0;fontSize=16;fillColor=#f9f7ed;strokeWidth=2;strokeColor=#36393d;" vertex="1" parent="1">
          <mxGeometry x="395" y="470" width="70" height="70" as="geometry" />
        </mxCell>
        <mxCell id="gsdXC3CE5baumBvn-r5R-45" value="&lt;i&gt;&lt;b&gt;null&lt;/b&gt;&lt;/i&gt;" style="text;html=1;align=center;verticalAlign=middle;resizable=0;points=[];autosize=1;strokeColor=none;fillColor=none;fontSize=30;" vertex="1" parent="1">
          <mxGeometry x="390" y="620" width="70" height="40" as="geometry" />
        </mxCell>
        <mxCell id="gsdXC3CE5baumBvn-r5R-46" value="&lt;b&gt;&lt;i&gt;&lt;font style=&quot;font-size: 26px;&quot;&gt;e&lt;/font&gt;&lt;/i&gt;&lt;/b&gt;" style="rounded=1;whiteSpace=wrap;html=1;shadow=0;sketch=1;fontSize=30;strokeColor=#6c8ebf;strokeWidth=2;fillColor=#dae8fc;" vertex="1" parent="1">
          <mxGeometry x="880" y="330" width="80" height="40" as="geometry" />
        </mxCell>
        <mxCell id="gsdXC3CE5baumBvn-r5R-48" value="&lt;b&gt;&lt;i&gt;&lt;font style=&quot;font-size: 27px;&quot;&gt;next&lt;/font&gt;&lt;/i&gt;&lt;/b&gt;" style="rounded=1;whiteSpace=wrap;html=1;shadow=0;sketch=1;fontSize=30;strokeColor=#6c8ebf;strokeWidth=2;fillColor=#dae8fc;" vertex="1" parent="1">
          <mxGeometry x="880" y="400" width="80" height="40" as="geometry" />
        </mxCell>
        <mxCell id="gsdXC3CE5baumBvn-r5R-52" value="" style="endArrow=classic;html=1;rounded=0;shadow=1;sketch=1;fontSize=30;strokeWidth=1;curved=1;elbow=vertical;exitX=0;exitY=0.5;exitDx=0;exitDy=0;" edge="1" parent="1" source="gsdXC3CE5baumBvn-r5R-46">
          <mxGeometry width="50" height="50" relative="1" as="geometry">
            <mxPoint x="600" y="380" as="sourcePoint" />
            <mxPoint x="470" y="380" as="targetPoint" />
          </mxGeometry>
        </mxCell>
        <mxCell id="gsdXC3CE5baumBvn-r5R-53" value="" style="endArrow=classic;html=1;rounded=0;shadow=1;sketch=1;fontSize=30;strokeWidth=1;curved=1;elbow=vertical;entryX=1;entryY=0.5;entryDx=0;entryDy=0;" edge="1" parent="1" target="gsdXC3CE5baumBvn-r5R-41">
          <mxGeometry width="50" height="50" relative="1" as="geometry">
            <mxPoint x="880" y="420" as="sourcePoint" />
            <mxPoint x="650" y="450" as="targetPoint" />
          </mxGeometry>
        </mxCell>
        <mxCell id="gsdXC3CE5baumBvn-r5R-54" value="&lt;i&gt;&lt;font style=&quot;font-size: 18px;&quot;&gt;&lt;b&gt;指向当前转移移元素指针&lt;/b&gt;&lt;/font&gt;&lt;/i&gt;" style="text;html=1;align=center;verticalAlign=middle;resizable=0;points=[];autosize=1;strokeColor=none;fillColor=none;fontSize=30;" vertex="1" parent="1">
          <mxGeometry x="980" y="320" width="210" height="50" as="geometry" />
        </mxCell>
        <mxCell id="gsdXC3CE5baumBvn-r5R-55" value="&lt;i style=&quot;color: rgb(0, 0, 0); font-family: Helvetica; font-size: 30px; font-variant-ligatures: normal; font-variant-caps: normal; letter-spacing: normal; orphans: 2; text-align: center; text-indent: 0px; text-transform: none; widows: 2; word-spacing: 0px; -webkit-text-stroke-width: 0px; background-color: rgb(248, 249, 250); text-decoration-thickness: initial; text-decoration-style: initial; text-decoration-color: initial;&quot;&gt;&lt;font style=&quot;font-size: 18px;&quot;&gt;&lt;b&gt;指向下一个元素的指针&lt;/b&gt;&lt;/font&gt;&lt;/i&gt;" style="text;whiteSpace=wrap;html=1;fontSize=18;" vertex="1" parent="1">
          <mxGeometry x="980" y="390" width="200" height="40" as="geometry" />
        </mxCell>
        <mxCell id="gsdXC3CE5baumBvn-r5R-56" value="&lt;b&gt;&lt;i&gt;&lt;font style=&quot;font-size: 26px;&quot;&gt;e&lt;/font&gt;&lt;/i&gt;&lt;/b&gt;" style="rounded=1;whiteSpace=wrap;html=1;shadow=0;sketch=1;fontSize=30;strokeColor=#d6b656;strokeWidth=2;fillColor=#fff2cc;" vertex="1" parent="1">
          <mxGeometry x="880" y="660" width="80" height="40" as="geometry" />
        </mxCell>
        <mxCell id="gsdXC3CE5baumBvn-r5R-57" value="&lt;b&gt;&lt;i&gt;&lt;font style=&quot;font-size: 27px;&quot;&gt;next&lt;/font&gt;&lt;/i&gt;&lt;/b&gt;" style="rounded=1;whiteSpace=wrap;html=1;shadow=0;sketch=1;fontSize=30;strokeColor=#d6b656;strokeWidth=2;fillColor=#fff2cc;" vertex="1" parent="1">
          <mxGeometry x="880" y="730" width="80" height="40" as="geometry" />
        </mxCell>
        <mxCell id="gsdXC3CE5baumBvn-r5R-60" value="" style="curved=1;endArrow=classic;html=1;rounded=0;shadow=1;sketch=1;fontSize=18;strokeWidth=1;elbow=vertical;exitX=0;exitY=0.5;exitDx=0;exitDy=0;" edge="1" parent="1" source="gsdXC3CE5baumBvn-r5R-56">
          <mxGeometry width="50" height="50" relative="1" as="geometry">
            <mxPoint x="760" y="630" as="sourcePoint" />
            <mxPoint x="460" y="390" as="targetPoint" />
            <Array as="points">
              <mxPoint x="780" y="640" />
              <mxPoint x="620" y="540" />
            </Array>
          </mxGeometry>
        </mxCell>
        <mxCell id="gsdXC3CE5baumBvn-r5R-61" value="" style="curved=1;endArrow=classic;html=1;rounded=0;shadow=1;sketch=1;fontSize=18;strokeWidth=1;elbow=vertical;exitX=0;exitY=0.5;exitDx=0;exitDy=0;entryX=1.011;entryY=0.689;entryDx=0;entryDy=0;entryPerimeter=0;" edge="1" parent="1" source="gsdXC3CE5baumBvn-r5R-57" target="gsdXC3CE5baumBvn-r5R-41">
          <mxGeometry width="50" height="50" relative="1" as="geometry">
            <mxPoint x="580" y="730" as="sourcePoint" />
            <mxPoint x="630" y="680" as="targetPoint" />
            <Array as="points">
              <mxPoint x="630" y="730" />
            </Array>
          </mxGeometry>
        </mxCell>
      </root>
    </mxGraphModel>
  </diagram>
</mxfile>
